<svg viewBox="0 0 64 64" version="1.1" xmlns="http://www.w3.org/2000/svg">
    <g stroke="#000000" stroke-width="2" fill="none" fill-rule="evenodd" stroke-linecap="round" stroke-linejoin="round">
        <path d="M45,17.0036 L45,9.9996 C45,8.3426 43.657,6.9996 42,6.9996 L8,6.9996 C6.343,6.9996 5,8.3426 5,9.9996 L5,43.9996 C5,45.6566 6.343,46.9996 8,46.9996 L19,46.9996" />
        <path d="M57,26.8514404 C57,29.913208 49.7662059,31.4440918 40.8433024,31.4440918 C31.920399,31.4440918 24.6866048,29.913208 24.6866048,26.8514404 C24.6866048,23.7896729 31.920399,22.2587891 40.8433024,22.2587891 C49.7662059,22.2587891 57,23.7896729 57,26.8514404 L57,26.8514404 Z" />
        <path d="M57,26.8514404 L57,35.2713013 C57,39.0985107 49.7662059,40.6293945 40.8433024,40.6293945 C31.920399,40.6293945 24.6866048,39.0985107 24.6866048,35.2713013 L24.6866048,26.8514404" />
        <path d="M57,36.0367432 L57,44.456604 C57,48.2838135 49.7662059,49.8146973 40.8433024,49.8146973 C31.920399,49.8146973 24.6866048,48.2838135 24.6866048,44.456604 L24.6866048,36.0367432" />
        <path d="M57,45.2220459 L57,53.6419067 C57,57.4691162 49.7662059,59 40.8433024,59 C31.920399,59 24.6866048,57.4691162 24.6866048,53.6419067 L24.6866048,45.2220459" />
        <path d="M10,18 L16,12" />
        <path d="M10,24 L22,12" />
    </g>
</svg>
